<svg width="759" height="71" viewBox="0 0 759 71" fill="none" xmlns="http://www.w3.org/2000/svg">
<path d="M1 12L758 11.9999" stroke="black" stroke-width="1.2" stroke-linecap="round" stroke-linejoin="round" stroke-dasharray="5 5"/>
<path d="M150.48 46.936V44.56H162.48V46.936H157.848V61H155.16V46.936H150.48ZM171.03 58.84L171.702 58.768L171.75 60.712C169.926 61.08 168.31 61.264 166.902 61.264C165.126 61.264 163.846 60.776 163.062 59.8C162.294 58.824 161.91 57.264 161.91 55.12C161.91 50.864 163.646 48.736 167.118 48.736C170.478 48.736 172.158 50.568 172.158 54.232L171.99 56.104H164.55C164.566 57.096 164.782 57.824 165.198 58.288C165.614 58.752 166.39 58.984 167.526 58.984C168.662 58.984 169.83 58.936 171.03 58.84ZM169.59 54.088C169.59 52.904 169.398 52.08 169.014 51.616C168.646 51.136 168.014 50.896 167.118 50.896C166.222 50.896 165.566 51.144 165.15 51.64C164.75 52.136 164.542 52.952 164.526 54.088H169.59ZM183.002 51.472C181.114 51.216 179.746 51.088 178.898 51.088C178.05 51.088 177.458 51.192 177.122 51.4C176.802 51.592 176.642 51.904 176.642 52.336C176.642 52.768 176.818 53.072 177.17 53.248C177.538 53.424 178.386 53.632 179.714 53.872C181.058 54.096 182.01 54.456 182.57 54.952C183.13 55.448 183.41 56.328 183.41 57.592C183.41 58.856 183.002 59.784 182.186 60.376C181.386 60.968 180.21 61.264 178.658 61.264C177.682 61.264 176.45 61.128 174.962 60.856L174.218 60.736L174.314 58.552C176.234 58.808 177.618 58.936 178.466 58.936C179.314 58.936 179.914 58.832 180.266 58.624C180.634 58.416 180.818 58.072 180.818 57.592C180.818 57.112 180.642 56.784 180.29 56.608C179.954 56.416 179.13 56.216 177.818 56.008C176.522 55.784 175.57 55.44 174.962 54.976C174.354 54.512 174.05 53.664 174.05 52.432C174.05 51.2 174.466 50.28 175.298 49.672C176.146 49.064 177.226 48.76 178.538 48.76C179.562 48.76 180.818 48.888 182.306 49.144L183.05 49.288L183.002 51.472ZM192.38 51.232H189.068V56.512C189.068 57.488 189.14 58.136 189.284 58.456C189.428 58.776 189.796 58.936 190.388 58.936L192.356 58.864L192.476 60.952C191.404 61.16 190.588 61.264 190.028 61.264C188.668 61.264 187.732 60.952 187.22 60.328C186.724 59.704 186.476 58.528 186.476 56.8V51.232H184.94V49H186.476V45.52H189.068V49H192.38V51.232ZM197.141 61H194.525V49H197.117V49.744C198.285 49.072 199.389 48.736 200.429 48.736C202.029 48.736 203.117 49.192 203.693 50.104C204.285 51 204.581 52.488 204.581 54.568V61H201.989V54.64C201.989 53.344 201.845 52.424 201.557 51.88C201.285 51.336 200.717 51.064 199.853 51.064C199.037 51.064 198.253 51.224 197.501 51.544L197.141 51.688V61ZM216.171 58.84L216.843 58.768L216.891 60.712C215.067 61.08 213.451 61.264 212.043 61.264C210.267 61.264 208.987 60.776 208.203 59.8C207.435 58.824 207.051 57.264 207.051 55.12C207.051 50.864 208.787 48.736 212.259 48.736C215.619 48.736 217.299 50.568 217.299 54.232L217.131 56.104H209.691C209.707 57.096 209.923 57.824 210.339 58.288C210.755 58.752 211.531 58.984 212.667 58.984C213.803 58.984 214.971 58.936 216.171 58.84ZM214.731 54.088C214.731 52.904 214.539 52.08 214.155 51.616C213.787 51.136 213.155 50.896 212.259 50.896C211.363 50.896 210.707 51.144 210.291 51.64C209.891 52.136 209.683 52.952 209.667 54.088H214.731ZM226.27 51.232H222.958V56.512C222.958 57.488 223.03 58.136 223.174 58.456C223.318 58.776 223.686 58.936 224.278 58.936L226.246 58.864L226.366 60.952C225.294 61.16 224.478 61.264 223.918 61.264C222.558 61.264 221.622 60.952 221.11 60.328C220.614 59.704 220.366 58.528 220.366 56.8V51.232H218.83V49H220.366V45.52H222.958V49H226.27V51.232Z" fill="#FFA728"/>
<rect x="179.5" y="0.5" width="19" height="19" rx="9.5" fill="#FFA728" stroke="black"/>
<rect x="185.5" y="6.5" width="7" height="7" rx="3.5" fill="white" stroke="black"/>
<g filter="url(#filter0_d_7328_2021)">
<rect x="179" width="20" height="20" fill="#FFA728"/>
<rect x="179.56" y="0.560001" width="18.88" height="18.88" stroke="black" stroke-width="1.12"/>
</g>
<path d="M528.204 61V44.392H531.54L536.244 58.432L540.948 44.392H544.284V61H542.436V46.36H542.1L537.276 60.4H535.212L530.388 46.36H530.052V61H528.204ZM556.52 52.624V58.768C556.568 59.36 557.032 59.712 557.912 59.824L557.84 61.24C556.576 61.24 555.624 60.92 554.984 60.28C553.544 60.92 552.104 61.24 550.664 61.24C549.56 61.24 548.72 60.928 548.144 60.304C547.568 59.68 547.28 58.784 547.28 57.616C547.28 56.448 547.576 55.592 548.168 55.048C548.76 54.488 549.688 54.144 550.952 54.016L554.72 53.656V52.624C554.72 51.808 554.544 51.224 554.192 50.872C553.84 50.52 553.36 50.344 552.752 50.344C551.472 50.344 550.144 50.424 548.768 50.584L548.024 50.656L547.952 49.288C549.712 48.936 551.272 48.76 552.632 48.76C553.992 48.76 554.976 49.072 555.584 49.696C556.208 50.32 556.52 51.296 556.52 52.624ZM549.128 57.52C549.128 58.992 549.736 59.728 550.952 59.728C552.04 59.728 553.112 59.544 554.168 59.176L554.72 58.984V55.024L551.168 55.36C550.448 55.424 549.928 55.632 549.608 55.984C549.288 56.336 549.128 56.848 549.128 57.52ZM560.072 61V49H561.872V61H560.072ZM560.072 46.288V44.2H561.872V46.288H560.072ZM567.122 61H565.322V49H567.098V49.84C568.394 49.12 569.634 48.76 570.818 48.76C572.418 48.76 573.49 49.192 574.034 50.056C574.594 50.92 574.874 52.456 574.874 54.664V61H573.098V54.712C573.098 53.048 572.93 51.912 572.594 51.304C572.274 50.68 571.578 50.368 570.506 50.368C569.994 50.368 569.45 50.448 568.874 50.608C568.314 50.752 567.882 50.896 567.578 51.04L567.122 51.256V61ZM580.012 61H578.212V49H579.988V49.84C581.284 49.12 582.524 48.76 583.708 48.76C585.308 48.76 586.38 49.192 586.924 50.056C587.484 50.92 587.764 52.456 587.764 54.664V61H585.988V54.712C585.988 53.048 585.82 51.912 585.484 51.304C585.164 50.68 584.468 50.368 583.396 50.368C582.884 50.368 582.34 50.448 581.764 50.608C581.204 50.752 580.772 50.896 580.468 51.04L580.012 51.256V61ZM599.263 59.512L599.959 59.44L600.007 60.856C598.183 61.112 596.623 61.24 595.327 61.24C593.599 61.24 592.375 60.744 591.655 59.752C590.935 58.744 590.575 57.184 590.575 55.072C590.575 50.864 592.247 48.76 595.591 48.76C597.207 48.76 598.415 49.216 599.215 50.128C600.015 51.024 600.415 52.44 600.415 54.376L600.319 55.744H592.399C592.399 57.072 592.639 58.056 593.119 58.696C593.599 59.336 594.431 59.656 595.615 59.656C596.815 59.656 598.031 59.608 599.263 59.512ZM598.615 54.304C598.615 52.832 598.375 51.792 597.895 51.184C597.431 50.576 596.663 50.272 595.591 50.272C594.535 50.272 593.735 50.592 593.191 51.232C592.663 51.872 592.391 52.896 592.375 54.304H598.615ZM609.366 50.56H605.55V56.296C605.55 57.672 605.646 58.576 605.838 59.008C606.046 59.44 606.526 59.656 607.278 59.656L609.414 59.512L609.534 61C608.462 61.176 607.646 61.264 607.086 61.264C605.838 61.264 604.974 60.96 604.494 60.352C604.014 59.744 603.774 58.584 603.774 56.872V50.56H602.07V49H603.774V45.328H605.55V49H609.366V50.56Z" fill="black"/>
<rect x="560.5" y="0.5" width="19" height="19" rx="9.5" fill="#FFF8EE" stroke="black"/>
<rect x="566.5" y="6.5" width="7" height="7" rx="3.5" fill="white" stroke="black"/>
<rect x="560.5" y="0.5" width="19" height="19" rx="9.5" fill="#FFF8EE" stroke="black"/>
<rect x="566.5" y="6.5" width="7" height="7" rx="3.5" fill="white" stroke="black"/>
<rect x="560.5" y="0.5" width="19" height="19" rx="9.5" fill="#FFA728" stroke="black"/>
<rect x="566.5" y="6.5" width="7" height="7" rx="3.5" fill="white" stroke="black"/>
<g filter="url(#filter1_d_7328_2021)">
<rect x="560" width="20" height="20" fill="#FFF8EE"/>
<rect x="560.56" y="0.560001" width="18.88" height="18.88" stroke="black" stroke-width="1.12"/>
</g>
<defs>
<filter id="filter0_d_7328_2021" x="179" y="0" width="23" height="23" filterUnits="userSpaceOnUse" color-interpolation-filters="sRGB">
<feFlood flood-opacity="0" result="BackgroundImageFix"/>
<feColorMatrix in="SourceAlpha" type="matrix" values="0 0 0 0 0 0 0 0 0 0 0 0 0 0 0 0 0 0 127 0" result="hardAlpha"/>
<feOffset dx="3" dy="3"/>
<feComposite in2="hardAlpha" operator="out"/>
<feColorMatrix type="matrix" values="0 0 0 0 0 0 0 0 0 0 0 0 0 0 0 0 0 0 1 0"/>
<feBlend mode="normal" in2="BackgroundImageFix" result="effect1_dropShadow_7328_2021"/>
<feBlend mode="normal" in="SourceGraphic" in2="effect1_dropShadow_7328_2021" result="shape"/>
</filter>
<filter id="filter1_d_7328_2021" x="560" y="0" width="23" height="23" filterUnits="userSpaceOnUse" color-interpolation-filters="sRGB">
<feFlood flood-opacity="0" result="BackgroundImageFix"/>
<feColorMatrix in="SourceAlpha" type="matrix" values="0 0 0 0 0 0 0 0 0 0 0 0 0 0 0 0 0 0 127 0" result="hardAlpha"/>
<feOffset dx="3" dy="3"/>
<feComposite in2="hardAlpha" operator="out"/>
<feColorMatrix type="matrix" values="0 0 0 0 0 0 0 0 0 0 0 0 0 0 0 0 0 0 1 0"/>
<feBlend mode="normal" in2="BackgroundImageFix" result="effect1_dropShadow_7328_2021"/>
<feBlend mode="normal" in="SourceGraphic" in2="effect1_dropShadow_7328_2021" result="shape"/>
</filter>
</defs>
</svg>
