<svg width="36" height="36" viewBox="0 0 36 36" fill="none" xmlns="http://www.w3.org/2000/svg">
<rect width="36" height="36" rx="4" fill="black"/>
<path d="M24.5 7C24.4089 7 24.3214 7.03622 24.257 7.10068L19.6013 11.7563C19.3869 11.9707 19.5349 12.3375 19.838 12.3431L23.3328 12.4078C23.5201 12.4113 23.6701 12.5641 23.6701 12.7515V16.0529C23.6701 16.3591 24.0404 16.5125 24.257 16.2959L28.8976 11.6553C28.962 11.5909 28.9982 11.5034 28.9982 11.4123V7.34375C28.9982 7.1539 28.8443 7 28.6545 7H24.5Z" fill="#EE7D35"/>
<path d="M7.34375 7C7.1539 7 7 7.1539 7 7.34375V11.2402C7 11.3315 7.03633 11.419 7.10098 11.4835L13.1192 17.487C13.2523 17.6198 13.254 17.835 13.123 17.9699L7.09718 24.1733C7.03486 24.2375 7 24.3234 7 24.4128V28.5702C7 28.76 7.1539 28.9139 7.34375 28.9139H13.9906C14.2115 28.9139 14.3906 28.7349 14.3906 28.5139V26.1774C14.3906 26.0863 14.4268 25.9988 14.4913 25.9344L17.7585 22.6672C17.8921 22.5335 18.1085 22.5328 18.243 22.6656L24.4737 28.8149C24.5381 28.8783 24.6248 28.9139 24.7152 28.9139H28.5702C28.76 28.9139 28.9139 28.76 28.9139 28.5702V24.4584C28.9139 24.3674 28.8778 24.2801 28.8136 24.2157L11.7413 7.10098C11.6768 7.03633 11.5893 7 11.498 7H7.34375Z" fill="white"/>
</svg>
