<svg width="220" height="60" viewBox="0 0 220 60" fill="none" xmlns="http://www.w3.org/2000/svg">
<path d="M0.600925 30L20.2676 0.5H199.732L219.399 30L199.732 59.5H20.2676L0.600925 30Z" fill="#FFF8EE" stroke="black"/>
<path fill-rule="evenodd" clip-rule="evenodd" d="M144.811 19.48H137.5V15.3927L136.083 14H136.08V25.0182L137.5 26.4109V20.8764H144.811V24.9636L146.231 26.36V15.3927L144.811 14V19.48ZM59 26.4133H60.5683L65.5723 16.286L70.5762 26.4133H72.1483L66.0262 14.0242H65.1221L59 26.4133ZM73.7547 22.6788L75.1754 21.2788V16.7151L84.2054 26.4133H85.8143V14.0242H84.3936V24.5479L74.5887 14.0242H73.7547V22.6788ZM88.3013 14.0242V15.4169H93.6226V26.4133L95.0434 25.0169V15.4169H100.369V14.0242H88.3013ZM98.7489 26.4133H100.317L105.321 16.286L110.329 26.4133H111.897L105.775 14.0242H104.871L98.7489 26.4133ZM115.837 25.0169V15.4169L114.416 14.0242V26.4133H123.288V26.4097L121.871 25.0169H115.837ZM129.078 21.5951H130.019C132.144 21.5951 133.875 19.8969 133.875 17.8097C133.875 15.7224 132.144 14.0242 130.019 14.0242H125.107V26.4133H126.528V15.4169H130.019C131.362 15.4169 132.458 16.4897 132.458 17.8097C132.458 19.1297 131.362 20.2024 130.019 20.2024H127.657L129.078 21.5951ZM154.563 14.0242L148.441 26.4133H150.009L155.013 16.286L160.021 26.4133H161.589L155.467 14.0242H154.563ZM60.5683 33.2699H59L65.1221 45.659H66.0262L72.1483 33.2699H70.5762L65.5723 43.3935L60.5683 33.2699ZM75.7817 44.2626H82.0255L83.4463 45.659H74.3609V33.2699H82.0255L83.4463 34.6626H75.7817V44.2626ZM96.5156 43.7935L86.7104 33.2699H85.8765V41.9244L87.2972 40.5281V35.9608L96.3274 45.659H97.9363V33.2699H96.5156V43.7935ZM139.162 45.659L134.221 40.8044C136.114 40.5681 137.583 38.979 137.583 37.0553C137.583 34.9681 135.852 33.2699 133.726 33.2699H128.815V45.659H130.235V34.6626H133.726C135.07 34.6626 136.166 35.7353 136.166 37.0553C136.166 38.3753 135.07 39.4481 133.726 39.4481H130.829L131.837 40.4372L137.155 45.659H139.162ZM142.974 44.2626H149.218L150.639 45.659H141.553V33.2699H149.218L150.639 34.6626H142.974V44.2626ZM105.473 34.6695V45.6659L106.894 44.2695V34.6695H112.215V33.2768H100.148V34.6695H105.473ZM120.229 44.3896C117.871 44.3896 115.952 42.5095 115.952 40.1932V33.2768H114.649V40.1932C114.649 43.215 117.151 45.6695 120.229 45.6695C123.306 45.6695 125.808 43.215 125.808 40.1932V33.2768H124.506V40.1932C124.506 42.5095 122.587 44.3896 120.229 44.3896ZM154.268 42.6223L152.907 43.2586L152.958 43.4077C153.253 44.2114 153.763 44.8441 154.482 45.2914C155.239 45.7604 156.184 46.0005 157.291 46.0005C158.128 46.0005 158.877 45.8477 159.527 45.5422C160.176 45.2405 160.686 44.8077 161.044 44.2586C161.405 43.7095 161.59 43.0768 161.59 42.3823C161.59 41.3532 161.28 40.5386 160.671 39.9568C160.066 39.375 159.055 38.935 157.667 38.6477C156.995 38.5059 156.464 38.3423 156.088 38.1677C155.711 37.9896 155.438 37.775 155.276 37.5277C155.113 37.2841 155.028 36.9641 155.028 36.5859C155.028 35.9713 155.228 35.4986 155.626 35.175C156.025 34.855 156.63 34.6913 157.412 34.6913C158.667 34.6913 159.508 35.1859 159.914 36.1604L159.984 36.3277L161.346 35.7095L161.287 35.5604C161.029 34.8513 160.571 34.295 159.922 33.9023C159.235 33.4877 158.379 33.2768 157.379 33.2768C156.556 33.2768 155.833 33.4186 155.231 33.695C154.63 33.9713 154.161 34.3713 153.837 34.8804C153.512 35.3859 153.346 35.9823 153.346 36.6513C153.346 37.5641 153.645 38.3095 154.231 38.8586C154.818 39.4077 155.759 39.8186 157.032 40.0877C157.756 40.2404 158.335 40.4186 158.756 40.6223C159.169 40.8223 159.472 41.0696 159.652 41.3496C159.833 41.6295 159.925 41.9896 159.925 42.4113C159.925 43.0877 159.693 43.6223 159.232 44.0041C158.767 44.3859 158.117 44.5822 157.291 44.5822C156.527 44.5822 155.881 44.415 155.375 44.0877C154.907 43.7859 154.556 43.3532 154.338 42.7968L154.268 42.6223ZM78.2629 40.161L76.8459 38.7683V38.7647H81.8314L83.2521 40.161H78.2629ZM145.455 40.161L144.038 38.7683V38.7647H149.024L150.444 40.161H145.455Z" fill="#2222FF"/>
</svg>
