<svg width="220" height="61" viewBox="0 0 220 61" fill="none" xmlns="http://www.w3.org/2000/svg">
<path d="M0.600925 30.6328L20.2676 1.13281H199.732L219.399 30.6328L199.732 60.1328H20.2676L0.600925 30.6328Z" fill="#FFF8EE" stroke="black"/>
<g clip-path="url(#clip0_6861_2141)">
<path fill-rule="evenodd" clip-rule="evenodd" d="M50.0381 23.5118H50.4099H63.7968V10.0082V9.63281H64.1687H77.5555H77.9274V10.0082V23.5118H91.291H91.663H105.05H105.422V23.8872V37.3679V37.4013V37.7433V37.7767V51.2573V51.6328H105.05H91.663H91.291V51.2573V37.7767H77.9274H77.9042H77.5555H77.5323H64.1687H63.7968H50.4099H50.0381V37.4013V23.8872V23.5118ZM77.9274 23.8872H77.9042V23.8977V24.2626V37.0259V37.4013H77.9274H78.276H90.9193H91.291V37.3679V37.0259V24.2626V23.8872H90.9193H78.276H77.9274ZM91.663 37.3679V37.4013H92.0347H104.678H105.05V37.3679V37.0259V24.2626V23.8872H104.678H92.0347H91.663V24.2626V37.0259V37.3679ZM64.1687 23.5118V23.5223H64.5405H77.1837H77.5323H77.5555V23.5118V23.1469V10.3836V10.0082H77.1837H64.5405H64.1687V10.3836V23.1469V23.5118ZM64.1687 23.8977V24.2626V37.0259V37.4013H64.5405H77.1837H77.5323H77.5555V37.0259V24.2626V23.8977V23.8872H77.5323H77.1837H64.5405H64.1687V23.8977ZM91.663 37.7767V38.1187V50.8821V51.2573H92.0347H104.678H105.05V50.8821V38.1187V37.7767V37.7433H104.678H92.0347H91.663V37.7767ZM50.7818 23.8872H50.4099V24.2626V37.0259V37.4013H50.7818H63.425H63.7968V37.0259V24.2626V23.8977V23.8872H63.425H50.7818ZM68.6072 19.6746V13.8935H71.1351C71.5277 13.8935 71.8604 13.9513 72.1331 14.0669C72.4058 14.177 72.6104 14.3395 72.7467 14.5542C72.8885 14.7634 72.9594 15.0167 72.9594 15.314C72.9594 15.6443 72.8776 15.9224 72.714 16.1481C72.6005 16.31 72.4493 16.4336 72.2602 16.5191C72.4099 16.5736 72.5448 16.6454 72.6649 16.7345C72.8558 16.8721 73.003 17.0428 73.1067 17.2465C73.2103 17.4447 73.2621 17.6705 73.2621 17.9237C73.2621 18.2155 73.213 18.4715 73.1148 18.6918C73.0167 18.9065 72.8749 19.0882 72.6894 19.2368C72.504 19.3855 72.2858 19.4956 72.035 19.5672C71.7895 19.6388 71.5169 19.6746 71.2169 19.6746H68.6072ZM69.9161 18.5018H71.1678C71.3205 18.5018 71.4487 18.477 71.5523 18.4275C71.6614 18.3779 71.7459 18.3064 71.8059 18.2128C71.8659 18.1137 71.8959 17.9953 71.8959 17.8576C71.8959 17.731 71.8632 17.6237 71.7977 17.5356C71.7377 17.4475 71.6505 17.3814 71.5359 17.3374C71.4214 17.2878 71.285 17.263 71.1269 17.263H69.9161V18.5018ZM69.9161 16.2142H70.9387C71.0805 16.2142 71.2005 16.1922 71.2987 16.1481C71.4023 16.0986 71.4786 16.0325 71.5277 15.9499C71.5823 15.8618 71.6096 15.7572 71.6096 15.6361C71.6096 15.4599 71.5495 15.3222 71.4296 15.2232C71.3096 15.1185 71.1296 15.0662 70.8896 15.0662H69.9161V16.2142ZM56.3864 27.8663L54.1203 33.6474H55.4947L55.9035 32.5407H57.9995L58.4071 33.6474H59.8142L57.5645 27.8663H56.3864ZM57.6101 31.4836L57.3273 30.7156C57.2836 30.5999 57.24 30.4761 57.1963 30.3439C57.1527 30.2118 57.1091 30.0769 57.0655 29.9393C57.0285 29.8179 56.9914 29.7004 56.9544 29.5869C56.92 29.7044 56.8833 29.8218 56.8446 29.9393C56.8064 30.0659 56.7628 30.1953 56.7137 30.3274C56.6646 30.4541 56.6182 30.5862 56.5746 30.7238L56.294 31.4836H57.6101ZM96.2641 27.8663V33.6474H100.338V32.4499H97.6138V31.2772H99.8882V30.1375H97.6138V29.0639H100.256V27.8663H96.2641ZM95.8921 41.6052V47.3863H98.2892C98.7091 47.3863 99.0936 47.3173 99.4427 47.1798C99.7918 47.0366 100.092 46.8385 100.343 46.5851C100.599 46.3265 100.795 46.0209 100.931 45.6685C101.068 45.3104 101.136 44.9195 101.136 44.4957C101.136 44.0717 101.068 43.6836 100.931 43.3312C100.795 42.9789 100.599 42.6733 100.343 42.4145C100.092 42.1557 99.7918 41.9575 99.4427 41.8199C99.0936 41.6767 98.7091 41.6052 98.2892 41.6052H95.8921ZM97.2831 46.1473H98.2483C98.4775 46.1473 98.682 46.1088 98.862 46.0318C99.0419 45.9492 99.1945 45.8365 99.32 45.6933C99.451 45.5502 99.5519 45.3766 99.6227 45.1729C99.6937 44.9692 99.7291 44.7434 99.7291 44.4957C99.7291 44.2479 99.6937 44.0222 99.6227 43.8185C99.5519 43.6148 99.451 43.4413 99.32 43.2982C99.1945 43.155 99.0419 43.0449 98.862 42.9678C98.682 42.8853 98.4775 42.844 98.2483 42.844H97.2831V46.1473ZM84.921 33.73C84.4901 33.73 84.0919 33.6584 83.7265 33.5152C83.3666 33.3666 83.053 33.1601 82.7857 32.8958C82.5185 32.6261 82.3112 32.3095 82.164 31.9461C82.0222 31.5772 81.9513 31.1725 81.9513 30.7321C81.9513 30.3027 82.0276 29.9062 82.1803 29.5428C82.3331 29.1795 82.543 28.8657 82.8103 28.6014C83.083 28.3316 83.402 28.1224 83.7674 27.9737C84.1383 27.825 84.5419 27.7507 84.9782 27.7507C85.251 27.7507 85.518 27.7865 85.7798 27.8581C86.0419 27.9297 86.2846 28.037 86.5082 28.1802C86.737 28.3178 86.9333 28.483 87.0969 28.6757L86.2461 29.6585C86.1317 29.5373 86.0089 29.4327 85.8782 29.3446C85.7527 29.251 85.6137 29.1795 85.4608 29.1299C85.3083 29.0804 85.1446 29.0556 84.9699 29.0556C84.7518 29.0556 84.5446 29.0969 84.3483 29.1795C84.1574 29.2565 83.9883 29.3694 83.8411 29.5181C83.6993 29.6612 83.5875 29.8374 83.5057 30.0466C83.4238 30.2559 83.3829 30.4898 83.3829 30.7486C83.3829 31.0019 83.4238 31.2331 83.5057 31.4423C83.5875 31.6461 83.702 31.8222 83.8492 31.9709C83.9965 32.1195 84.1738 32.2324 84.381 32.3095C84.5937 32.3866 84.8281 32.4251 85.0846 32.4251C85.259 32.4251 85.4254 32.4003 85.5835 32.3508C85.7416 32.3012 85.8862 32.2351 86.0173 32.1526C86.1535 32.0645 86.2735 31.9654 86.3771 31.8553L87.048 32.9289C86.9118 33.0831 86.729 33.2207 86.4999 33.3418C86.2762 33.4629 86.0252 33.5593 85.7472 33.6309C85.4747 33.6969 85.199 33.73 84.921 33.73ZM142.323 35.572C142.973 35.8268 143.682 35.9542 144.449 35.9542C144.944 35.9542 145.434 35.8954 145.92 35.7778C146.415 35.6504 146.861 35.4789 147.259 35.2633C147.667 35.0477 147.992 34.8027 148.235 34.5283L147.041 32.6173C146.856 32.8133 146.643 32.9897 146.4 33.1465C146.167 33.2935 145.91 33.4111 145.628 33.4993C145.347 33.5875 145.051 33.6316 144.74 33.6316C144.284 33.6316 143.866 33.563 143.488 33.4258C143.119 33.2886 142.803 33.0877 142.541 32.8231C142.279 32.5585 142.075 32.2449 141.93 31.8823C141.784 31.5099 141.711 31.0983 141.711 30.6475C141.711 30.1869 141.784 29.7704 141.93 29.398C142.075 29.0256 142.274 28.712 142.527 28.4572C142.789 28.1926 143.09 27.9917 143.43 27.8545C143.779 27.7075 144.148 27.634 144.536 27.634C144.847 27.634 145.138 27.6781 145.41 27.7663C145.682 27.8545 145.929 27.9819 146.153 28.1485C146.386 28.3053 146.604 28.4915 146.808 28.7071L148.322 26.9578C148.031 26.6148 147.681 26.3208 147.274 26.0758C146.876 25.821 146.444 25.6299 145.978 25.5025C145.512 25.3751 145.036 25.3114 144.551 25.3114C143.774 25.3114 143.056 25.4437 142.396 25.7083C141.745 25.9729 141.177 26.3453 140.692 26.8255C140.216 27.2959 139.842 27.8545 139.571 28.5013C139.299 29.1481 139.163 29.8537 139.163 30.6181C139.163 31.4021 139.289 32.1224 139.542 32.779C139.804 33.4258 140.173 33.9893 140.648 34.4695C141.124 34.9399 141.682 35.3074 142.323 35.572ZM115.872 35.8072L119.905 25.5172H122.002L126.007 35.8072H123.502L122.776 33.8374H119.046L118.318 35.8072H115.872ZM121.58 30.5887L122.084 31.9558H119.741L120.24 30.6034C120.318 30.3584 120.4 30.1232 120.488 29.8978C120.575 29.6626 120.653 29.4323 120.721 29.2069C120.79 28.9979 120.855 28.7888 120.916 28.5798C120.982 28.7818 121.048 28.9908 121.114 29.2069C121.192 29.4519 121.269 29.692 121.347 29.9272C121.424 30.1624 121.502 30.3829 121.58 30.5887ZM128.443 35.8072V25.5172H132.943C133.642 25.5172 134.234 25.6201 134.719 25.8259C135.205 26.0219 135.569 26.311 135.811 26.6932C136.064 27.0656 136.19 27.5164 136.19 28.0456C136.19 28.6336 136.044 29.1285 135.753 29.5303C135.551 29.8184 135.282 30.0385 134.945 30.1906C135.212 30.2876 135.452 30.4154 135.666 30.574C136.006 30.819 136.268 31.1228 136.452 31.4854C136.637 31.8382 136.729 32.24 136.729 32.6908C136.729 33.2102 136.641 33.6659 136.467 34.0579C136.292 34.4401 136.039 34.7635 135.709 35.0281C135.379 35.2927 134.991 35.4887 134.545 35.6161C134.108 35.7435 133.622 35.8072 133.088 35.8072H128.443ZM130.773 33.7198H133.001C133.273 33.7198 133.501 33.6757 133.685 33.5875C133.88 33.4993 134.03 33.3719 134.137 33.2053C134.244 33.0289 134.297 32.8182 134.297 32.5732C134.297 32.3478 134.239 32.1567 134.122 31.9999C134.015 31.8431 133.86 31.7255 133.656 31.6471C133.452 31.5589 133.21 31.5148 132.928 31.5148H130.773V33.7198ZM130.773 29.6479H132.593C132.846 29.6479 133.059 29.6087 133.234 29.5303C133.418 29.4421 133.554 29.3245 133.642 29.1775C133.739 29.0207 133.787 28.8345 133.787 28.6189C133.787 28.3053 133.681 28.0603 133.467 27.8839C133.253 27.6977 132.933 27.6046 132.506 27.6046H130.773V29.6479ZM151.094 35.8072V25.5172H155.361C156.108 25.5172 156.793 25.6446 157.414 25.8994C158.035 26.1444 158.569 26.4972 159.016 26.9578C159.472 27.4184 159.821 27.9623 160.064 28.5895C160.307 29.2167 160.428 29.9076 160.428 30.6622C160.428 31.4168 160.307 32.1126 160.064 32.7496C159.821 33.3768 159.472 33.9207 159.016 34.3813C158.569 34.8321 158.035 35.1849 157.414 35.4397C156.793 35.6847 156.108 35.8072 155.361 35.8072H151.094ZM155.288 33.6022H153.57V27.7222H155.288C155.696 27.7222 156.06 27.7957 156.38 27.9427C156.7 28.0799 156.972 28.2759 157.195 28.5307C157.428 28.7855 157.608 29.0942 157.734 29.4568C157.86 29.8194 157.924 30.2212 157.924 30.6622C157.924 31.1032 157.86 31.505 157.734 31.8676C157.608 32.2302 157.428 32.5389 157.195 32.7937C156.972 33.0485 156.7 33.2494 156.38 33.3964C156.06 33.5336 155.696 33.6022 155.288 33.6022ZM170.613 25.5172H163.507V35.8072H170.759V33.6757H165.91V31.5883H169.958V29.5597H165.91V27.6487H170.613V25.5172Z" fill="black"/>
</g>
<defs>
<clipPath id="clip0_6861_2141">
<rect width="121" height="42" fill="white" transform="translate(50 9.63281)"/>
</clipPath>
</defs>
</svg>
