<svg width="220" height="60" viewBox="0 0 220 60" fill="none" xmlns="http://www.w3.org/2000/svg">
<path d="M0.600925 30L20.2676 0.5H199.732L219.399 30L199.732 59.5H20.2676L0.600925 30Z" fill="#FFF8EE" stroke="black"/>
<path d="M94.2271 26.6707C94.7598 26.6514 95.1404 26.5819 95.3686 26.4615C95.7554 26.2584 95.9492 25.8708 95.9492 25.2995V15.8646C95.9492 15.2975 95.7651 14.9165 95.3972 14.7211C95.1817 14.6015 94.7918 14.5262 94.2271 14.4945V14H101.038V14.4945C100.245 14.5196 99.7174 14.6304 99.4541 14.8254C99.1908 15.0215 99.06 15.504 99.06 16.2734V25.4801C99.06 25.9121 99.1719 26.1974 99.397 26.3379C99.6224 26.4773 100.061 26.5472 100.715 26.5472C101.888 26.5472 102.873 26.2889 103.668 25.7712C104.464 25.2551 105.151 24.2483 105.728 22.7516H106.299L105.509 27.1652H94.2271V26.6707Z" fill="#231916"/>
<path d="M112.634 21.669C112.621 20.5213 112.531 19.7191 112.366 19.2628C112.201 18.8057 111.87 18.5775 111.373 18.5775C110.864 18.5775 110.516 18.8408 110.328 19.367C110.14 19.8932 110.034 20.661 110.008 21.669H112.634ZM108.493 19.2099C109.289 18.3826 110.249 17.9688 111.374 17.9688C112.014 17.9688 112.618 18.1371 113.183 18.4729C113.748 18.8092 114.183 19.2751 114.488 19.8716C114.716 20.3217 114.875 20.905 114.964 21.6215C115.009 21.9577 115.031 22.2144 115.031 22.392H110.056C110.1 23.1722 110.227 23.8478 110.437 24.4184C110.818 25.4896 111.488 26.0258 112.448 26.0258C112.906 26.0258 113.337 25.883 113.745 25.5977C113.992 25.4263 114.301 25.1379 114.669 24.7322L115.117 25.0079C114.513 25.9973 113.815 26.6852 113.021 27.072C112.507 27.3195 111.917 27.443 111.249 27.443C110.291 27.443 109.392 27.0658 108.554 26.3111C107.716 25.5564 107.297 24.3516 107.297 22.6966C107.297 21.1999 107.695 20.0379 108.493 19.2099Z" fill="#231916"/>
<path d="M115.83 26.6993C116.173 26.617 116.415 26.5078 116.558 26.3715C116.7 26.2352 116.772 25.9511 116.772 25.5199V15.5982C116.772 15.1824 116.706 14.9103 116.572 14.7821C116.439 14.654 116.192 14.5486 115.83 14.4663V14H119.521V25.5199C119.521 25.9511 119.591 26.2333 119.731 26.3665C119.87 26.4993 120.117 26.6109 120.472 26.6993V27.1656H115.83V26.6993Z" fill="#231916"/>
<path d="M126.084 25.7684C126.237 25.6533 126.417 25.4757 126.626 25.2345V22.3824C126.107 22.5102 125.65 22.7097 125.257 22.9831C124.591 23.4479 124.258 24.0393 124.258 24.7577C124.258 25.1835 124.355 25.5055 124.548 25.7255C124.741 25.9448 124.959 26.0544 125.2 26.0544C125.517 26.0544 125.812 25.9591 126.084 25.7684ZM122.688 23.2602C123.532 22.746 124.854 22.2276 126.655 21.7068V20.29C126.655 19.7125 126.533 19.2859 126.288 19.0107C126.044 18.7339 125.612 18.5965 124.99 18.5965C124.642 18.5965 124.355 18.6621 124.13 18.7914C123.904 18.9219 123.792 19.0852 123.792 19.2813C123.792 19.3577 123.804 19.421 123.83 19.4716C123.855 19.5222 123.893 19.5762 123.944 19.6334L124.058 19.7666C124.147 19.8743 124.218 19.9935 124.272 20.1229C124.326 20.2537 124.353 20.3912 124.353 20.5371C124.353 20.9046 124.231 21.1883 123.986 21.3887C123.743 21.5879 123.459 21.6883 123.135 21.6883C122.761 21.6883 122.442 21.5779 122.179 21.3555C121.916 21.1343 121.785 20.8154 121.785 20.3977C121.785 19.6511 122.136 19.0601 122.841 18.6231C123.545 18.1869 124.41 17.9688 125.437 17.9688C126.541 17.9688 127.463 18.1815 128.206 18.6061C128.941 19.0369 129.309 19.8299 129.309 20.9841V25.7023C129.309 25.8417 129.345 25.961 129.418 26.0587C129.491 26.1579 129.572 26.2065 129.661 26.2065C129.737 26.2065 129.805 26.1922 129.865 26.1641C129.926 26.1347 130.019 26.0575 130.146 25.9309L130.441 26.3397C130.061 26.7836 129.639 27.0944 129.176 27.272C128.884 27.3859 128.577 27.443 128.253 27.443C127.676 27.443 127.254 27.2743 126.988 26.9381C126.836 26.7474 126.725 26.4648 126.655 26.0899C126.116 26.63 125.507 27.0114 124.829 27.2334C124.417 27.3731 124.011 27.443 123.611 27.443C123.078 27.443 122.581 27.2732 122.118 26.9334C121.655 26.5941 121.423 26.0652 121.423 25.3472C121.423 24.4705 121.845 23.7752 122.688 23.2602Z" fill="#231916"/>
<path d="M130.983 26.701C131.339 26.657 131.6 26.5605 131.768 26.4115C131.936 26.2621 132.021 25.9656 132.021 25.5217V19.7951C132.021 19.3987 131.952 19.1234 131.815 18.9701C131.679 18.8165 131.402 18.7146 130.983 18.6632V18.1973H134.675V19.5955C134.985 19.1261 135.38 18.7377 135.858 18.4297C136.337 18.1228 136.869 17.9688 137.452 17.9688C138.289 17.9688 138.937 18.1842 139.397 18.6158C139.857 19.047 140.087 19.8048 140.087 20.8888V25.5977C140.087 26.0351 140.161 26.3177 140.31 26.4443C140.459 26.5713 140.708 26.657 141.058 26.701V27.1674H136.482V26.701C136.83 26.6312 137.069 26.5362 137.195 26.4158C137.322 26.2953 137.386 26.0224 137.386 25.5977V20.8795C137.386 20.4359 137.341 20.1024 137.252 19.8808C137.1 19.4813 136.799 19.2813 136.349 19.2813C136.012 19.2813 135.703 19.4041 135.421 19.6476C135.139 19.892 134.922 20.1375 134.77 20.385V25.5977C134.77 26.0224 134.833 26.2953 134.96 26.4158C135.087 26.5362 135.324 26.6312 135.673 26.701V27.1674H130.983V26.701Z" fill="#231916"/>
<path d="M147.538 25.7766C147.872 25.4022 148.039 25.1393 148.039 24.9872V20.25C148.039 20.091 147.896 19.8567 147.61 19.5459C147.323 19.2351 146.945 19.0795 146.474 19.0795C145.781 19.0795 145.311 19.5586 145.063 20.516C144.929 21.0298 144.862 21.756 144.862 22.6948C144.862 23.6962 144.926 24.4509 145.053 24.9586C145.289 25.8781 145.74 26.3379 146.408 26.3379C146.828 26.3379 147.204 26.1507 147.538 25.7766ZM143.097 19.3027C143.83 18.4129 144.71 17.967 145.737 17.967C146.251 17.967 146.708 18.0936 147.107 18.3472C147.354 18.4993 147.665 18.7719 148.039 19.1653V15.5982C148.039 15.106 147.945 14.8003 147.754 14.6818C147.564 14.564 147.171 14.4918 146.574 14.466V14H150.77V25.2153C150.77 25.618 150.846 25.8967 150.998 26.0499C151.15 26.204 151.448 26.2997 151.892 26.3379V26.7846C150.801 26.8927 150.097 26.9741 149.781 27.027C149.463 27.0818 148.905 27.2193 148.106 27.4412V26.1569C147.738 26.5375 147.402 26.8197 147.098 27.0038C146.616 27.2957 146.096 27.4412 145.538 27.4412C144.587 27.4412 143.759 27.0386 143.055 26.2333C142.351 25.428 141.999 24.334 141.999 22.9516C141.999 21.4101 142.365 20.1944 143.097 19.3027Z" fill="#231916"/>
<path d="M100.576 32.4727V32.9479C99.878 32.9861 99.4263 33.0452 99.2206 33.1243C99.0144 33.2038 98.9114 33.4026 98.9114 33.7203C98.9114 33.8219 98.9195 33.9157 98.9353 34.0014C98.9511 34.0879 98.9812 34.1809 99.0256 34.2828L102.114 41.4902H102.085L104.638 34.8931C104.695 34.7468 104.746 34.5974 104.79 34.4446C104.866 34.1967 104.905 33.9968 104.905 33.8443C104.905 33.476 104.794 33.2455 104.576 33.1529C104.357 33.061 103.912 32.9927 103.239 32.9479V32.4727H107.387V32.9479C106.911 32.9988 106.555 33.137 106.316 33.3617C106.079 33.5875 105.849 33.9817 105.628 34.5461L101.184 45.9992H100.671L95.6585 34.3276C95.4555 33.8582 95.2474 33.5208 95.0347 33.3146C94.8228 33.1085 94.4915 32.9861 94.041 32.9479V32.4727H100.576Z" fill="#231916"/>
<path d="M111.773 40.142C111.76 38.9939 111.671 38.1917 111.506 37.7354C111.34 37.2787 111.009 37.0502 110.513 37.0502C110.004 37.0502 109.655 37.3135 109.467 37.84C109.279 38.3662 109.173 39.1337 109.147 40.142H111.773ZM107.632 37.6825C108.429 36.8556 109.389 36.4414 110.513 36.4414C111.154 36.4414 111.757 36.6097 112.322 36.946C112.888 37.2818 113.322 37.7482 113.627 38.3442C113.856 38.7943 114.015 39.378 114.104 40.0945C114.148 40.4304 114.17 40.6871 114.17 40.8647H109.195C109.24 41.6453 109.367 42.3205 109.577 42.891C109.958 43.9627 110.628 44.4985 111.588 44.4985C112.045 44.4985 112.478 44.3561 112.884 44.0708C113.132 43.8994 113.44 43.6106 113.808 43.2053L114.256 43.4805C113.653 44.4703 112.955 45.1583 112.16 45.5451C111.646 45.7925 111.056 45.9161 110.389 45.9161C109.431 45.9161 108.532 45.5385 107.693 44.7838C106.856 44.0291 106.437 42.8242 106.437 41.1693C106.437 39.6726 106.835 38.5106 107.632 37.6825Z" fill="#231916"/>
<path d="M114.969 45.1741C115.324 45.1297 115.586 45.0332 115.754 44.8842C115.922 44.7351 116.006 44.4383 116.006 43.9943V38.2678C116.006 37.8717 115.937 37.5964 115.802 37.4432C115.665 37.2892 115.388 37.1876 114.969 37.1359V36.6699H118.66V38.0682C118.971 37.5988 119.365 37.2108 119.844 36.9023C120.323 36.5954 120.854 36.4414 121.438 36.4414C122.275 36.4414 122.923 36.6572 123.383 37.0884C123.842 37.5196 124.073 38.2774 124.073 39.3618V44.0708C124.073 44.5082 124.147 44.7904 124.296 44.9174C124.445 45.044 124.694 45.1297 125.043 45.1741V45.64H120.467V45.1741C120.816 45.1042 121.054 45.0089 121.181 44.8888C121.308 44.768 121.371 44.4954 121.371 44.0708V39.3526C121.371 38.9086 121.327 38.5755 121.238 38.3535C121.086 37.9539 120.784 37.7543 120.334 37.7543C119.998 37.7543 119.689 37.8767 119.406 38.1203C119.124 38.3647 118.907 38.6102 118.755 38.8576V44.0708C118.755 44.4954 118.818 44.768 118.946 44.8888C119.072 45.0089 119.31 45.1042 119.659 45.1741V45.64H114.969V45.1741Z" fill="#231916"/>
<path d="M125.804 37.5262V36.9842C125.975 36.8255 126.187 36.6383 126.441 36.4229C126.777 36.1121 127.095 35.7917 127.392 35.4616C127.983 34.8154 128.518 34.1209 129 33.3789H129.495V36.6699H131.35V37.5262H129.495V43.3859C129.495 43.6585 129.536 43.887 129.619 44.0707C129.745 44.356 129.954 44.4989 130.246 44.4989C130.5 44.4989 130.712 44.4085 130.884 44.2271C131.055 44.0476 131.226 43.7978 131.397 43.4809L131.863 43.7094C131.635 44.2418 131.363 44.6761 131.046 45.0127C130.489 45.6022 129.807 45.8971 129.002 45.8971C128.547 45.8971 128.148 45.8114 127.805 45.6404C127.147 45.3103 126.815 44.7112 126.812 43.8422V37.5262H125.804Z" fill="#231916"/>
<path d="M135.964 36.6719V43.2832C135.964 43.6762 136.011 43.965 136.106 44.1488C136.271 44.4723 136.598 44.634 137.086 44.634C137.397 44.634 137.701 44.5356 137.999 44.3387C138.171 44.231 138.386 44.0503 138.646 43.7967V38.2701C138.646 37.8609 138.566 37.5744 138.403 37.4111C138.242 37.2482 137.917 37.1571 137.428 37.1378V36.6719H141.31V43.6924C141.31 44.0951 141.386 44.373 141.538 44.5267C141.69 44.6807 141.988 44.7765 142.432 44.8147V45.2617C141.227 45.376 140.468 45.4601 140.154 45.5138C139.84 45.5678 139.337 45.7026 138.646 45.918V44.634C138.183 45.0332 137.799 45.3158 137.495 45.4802C136.962 45.7721 136.407 45.918 135.83 45.918C135.202 45.918 134.617 45.7184 134.075 45.3185C133.533 44.9193 133.262 44.2086 133.262 43.1879V38.2701C133.262 37.8543 133.195 37.5818 133.062 37.4536C132.929 37.3254 132.672 37.2204 132.292 37.1378V36.6719H135.964Z" fill="#231916"/>
<path d="M143.165 45.1741C143.539 45.1297 143.799 45.0409 143.945 44.9077C144.09 44.7745 144.17 44.5178 144.182 44.1368L144.201 43.5662V38.2678C144.201 37.859 144.132 37.5806 143.992 37.4331C143.852 37.2861 143.576 37.1876 143.165 37.1359V36.6699H146.856V38.2014C147.268 37.6625 147.678 37.2343 148.085 36.917C148.492 36.6001 148.963 36.4414 149.496 36.4414C149.896 36.4414 150.257 36.5703 150.579 36.8267C150.899 37.0838 151.06 37.4594 151.06 37.9539C151.06 38.3346 150.947 38.6484 150.721 38.8955C150.495 39.1429 150.202 39.2665 149.84 39.2665C149.426 39.2665 149.068 39.0731 148.767 38.6862C148.465 38.2994 148.254 38.106 148.133 38.106C147.872 38.106 147.61 38.2666 147.346 38.587C147.082 38.9074 146.95 39.3657 146.95 39.9629V43.6523C146.95 44.2951 147.044 44.6965 147.231 44.8575C147.418 45.0181 147.791 45.1239 148.349 45.1741V45.64H143.165V45.1741Z" fill="#231916"/>
<path d="M156.882 40.142C156.869 38.9939 156.779 38.1917 156.614 37.7354C156.448 37.2787 156.118 37.0502 155.621 37.0502C155.112 37.0502 154.763 37.3135 154.575 37.84C154.388 38.3662 154.282 39.1337 154.256 40.142H156.882ZM152.74 37.6825C153.537 36.8556 154.497 36.4414 155.621 36.4414C156.262 36.4414 156.866 36.6097 157.431 36.946C157.997 37.2818 158.431 37.7482 158.736 38.3442C158.964 38.7943 159.123 39.378 159.212 40.0945C159.256 40.4304 159.279 40.6871 159.279 40.8647H154.304C154.348 41.6453 154.475 42.3205 154.685 42.891C155.066 43.9627 155.737 44.4985 156.697 44.4985C157.153 44.4985 157.586 44.3561 157.993 44.0708C158.241 43.8994 158.549 43.6106 158.917 43.2053L159.364 43.4805C158.761 44.4703 158.063 45.1583 157.269 45.5451C156.755 45.7925 156.164 45.9161 155.498 45.9161C154.539 45.9161 153.64 45.5385 152.802 44.7838C151.964 44.0291 151.545 42.8242 151.545 41.1693C151.545 39.6726 151.943 38.5106 152.74 37.6825Z" fill="#231916"/>
<path d="M160.258 42.6911H160.8C160.991 43.6233 161.346 44.2815 161.866 44.6645C162.386 45.0486 162.919 45.2405 163.464 45.2405C163.965 45.2405 164.333 45.1281 164.567 44.9027C164.802 44.6776 164.919 44.3811 164.919 44.0132C164.919 43.6643 164.793 43.3666 164.539 43.1192C164.4 42.986 164.175 42.8435 163.864 42.6911L162.418 41.9873C161.657 41.6128 161.111 41.2071 160.781 40.7693C160.445 40.3319 160.278 39.8154 160.278 39.219C160.278 38.4647 160.54 37.813 161.067 37.2637C161.593 36.7159 162.329 36.4414 163.274 36.4414C163.686 36.4414 164.124 36.5097 164.587 36.6464C165.05 36.7823 165.338 36.8502 165.452 36.8502C165.611 36.8502 165.724 36.8174 165.79 36.7502C165.857 36.6842 165.912 36.5904 165.956 36.47H166.384V39.2858H165.89C165.706 38.626 165.405 38.0968 164.986 37.6968C164.567 37.2973 164.079 37.0977 163.521 37.0977C163.09 37.0977 162.768 37.2181 162.555 37.459C162.343 37.7003 162.237 37.9601 162.237 38.2392C162.237 38.4677 162.332 38.6959 162.522 38.924C162.706 39.1588 163.055 39.4 163.569 39.6471L164.634 40.1605C165.294 40.4779 165.776 40.7852 166.08 41.0836C166.588 41.5908 166.841 42.2154 166.841 42.9574C166.841 43.6805 166.58 44.3545 166.056 44.9791C165.533 45.6037 164.748 45.9161 163.702 45.9161C163.442 45.9161 163.18 45.8886 162.917 45.8354C162.654 45.7809 162.329 45.6875 161.942 45.5543L161.609 45.4401C161.489 45.3961 161.414 45.3702 161.386 45.364C161.357 45.3578 161.321 45.3544 161.276 45.3544C161.168 45.3544 161.074 45.398 160.995 45.4825C160.916 45.569 160.826 45.713 160.725 45.9161H160.258V42.6911Z" fill="#231916"/>
<path d="M55 21.9433H55.432C59.121 21.9433 62.8093 21.9456 66.498 21.9375C66.735 21.9371 66.8647 22.002 66.9794 22.2089C67.4724 23.101 67.9819 23.9847 68.4942 24.8664C68.5996 25.0471 68.6502 25.2258 68.6502 25.4343C68.6471 32.0754 68.6479 38.7161 68.6459 45.3572C68.6459 45.4568 68.6799 45.5649 68.5764 45.6965C64.0566 37.7888 59.5484 29.9016 55 21.9433Z" fill="#231916"/>
<path d="M67.8659 45.5637C63.6102 41.8399 59.354 38.117 55.1006 34.3955C55.1473 34.2704 55.2469 34.3171 55.3199 34.3171C57.2914 34.314 59.2629 34.3164 61.2345 34.3117C61.419 34.3113 61.5445 34.3457 61.6441 34.5206C63.7086 38.1474 65.7801 41.7712 67.849 45.3958C67.8717 45.4348 67.8856 45.478 67.9038 45.5197C67.891 45.5344 67.8783 45.549 67.8659 45.5637Z" fill="#231916"/>
<path d="M89.0574 39.656V45.2683H69.5386V14H77.0155V39.656H89.0574Z" fill="#231916"/>
</svg>
