<svg width="220" height="60" viewBox="0 0 220 60" fill="none" xmlns="http://www.w3.org/2000/svg">
<path d="M0.600925 30L20.2676 0.5H199.732L219.399 30L199.732 59.5H20.2676L0.600925 30Z" fill="#FFF8EE" stroke="black"/>
<path d="M47.5645 39.9615C46.8541 39.9615 46.1441 39.9089 45.4341 39.8041C44.7237 39.6993 44.0542 39.5377 43.4248 39.3199C42.7953 39.1021 42.2302 38.832 41.7302 38.5089C41.4397 38.3154 41.2376 38.0815 41.1249 37.8069C41.0118 37.5328 40.9755 37.2623 41.016 36.9959C41.0561 36.7296 41.1613 36.4959 41.3307 36.2938C41.5002 36.0922 41.7139 35.9671 41.9723 35.9186C42.2302 35.8702 42.5128 35.9428 42.8196 36.1365C43.5295 36.5564 44.28 36.8629 45.071 37.0564C45.8615 37.2501 46.6929 37.3469 47.5645 37.3469C48.8392 37.3469 49.7675 37.1332 50.3485 36.7055C50.9295 36.2779 51.22 35.7249 51.22 35.0471C51.22 34.4824 51.0142 34.0387 50.6027 33.7157C50.1911 33.3931 49.4849 33.1267 48.4844 32.9167L45.8214 32.3599C44.2879 32.0373 43.1464 31.4926 42.3959 30.7258C41.6454 29.9595 41.2702 28.9465 41.2702 27.6877C41.2702 26.8971 41.4313 26.1788 41.7544 25.5331C42.077 24.8878 42.5328 24.331 43.1222 23.8627C43.7111 23.3948 44.4132 23.0358 45.2283 22.7854C46.0431 22.5354 46.943 22.4102 47.9276 22.4102C48.8959 22.4102 49.8159 22.5312 50.6874 22.7733C51.5589 23.0154 52.3415 23.3706 53.0356 23.8385C53.2936 24.0163 53.4672 24.2342 53.5561 24.4921C53.6446 24.7505 53.6651 25.0047 53.6166 25.2547C53.5682 25.5051 53.4551 25.7188 53.2777 25.8962C53.0999 26.074 52.8783 26.1788 52.612 26.2109C52.3457 26.2435 52.0431 26.1625 51.7041 25.9688C51.1069 25.6299 50.5016 25.3878 49.8885 25.2426C49.2749 25.0973 48.6134 25.0247 47.9034 25.0247C47.1608 25.0247 46.5235 25.1299 45.9909 25.3394C45.4583 25.5494 45.0505 25.844 44.7684 26.223C44.4858 26.6024 44.3447 27.0503 44.3447 27.5666C44.3447 28.1476 44.5384 28.6118 44.9257 28.9586C45.3131 29.3059 45.9746 29.5759 46.9108 29.7696L49.5496 30.3264C51.1473 30.6653 52.3373 31.1979 53.1204 31.9242C53.903 32.6504 54.2945 33.6189 54.2945 34.8292C54.2945 35.6039 54.1371 36.3061 53.8224 36.9354C53.5077 37.5648 53.0557 38.1057 52.4667 38.5574C51.8774 39.0094 51.1716 39.3562 50.3485 39.5983C49.5254 39.8404 48.5971 39.9615 47.5645 39.9615Z" fill="#ECA747"/>
<path d="M60.5645 39.9629C59.7088 39.9629 58.9462 39.7971 58.2767 39.4666C57.6068 39.136 57.0822 38.688 56.7032 38.123C56.3238 37.5583 56.1343 36.9209 56.1343 36.2105C56.1343 35.3389 56.3601 34.649 56.8121 34.1407C57.2637 33.6323 57.9983 33.2654 59.0151 33.0392C60.0319 32.8134 61.3955 32.7002 63.1064 32.7002H64.3168V34.4433H63.1306C62.1297 34.4433 61.3308 34.4917 60.7339 34.5885C60.1366 34.6854 59.713 34.8511 59.463 35.0848C59.2125 35.319 59.0877 35.6458 59.0877 36.0653C59.0877 36.5978 59.2731 37.0336 59.6445 37.3725C60.0156 37.7114 60.5319 37.881 61.1939 37.881C61.7265 37.881 62.1986 37.7561 62.6101 37.5057C63.0217 37.2558 63.3485 36.9126 63.5906 36.4768C63.8326 36.041 63.9537 35.541 63.9537 34.9759V32.1919C63.9537 31.385 63.7759 30.804 63.4211 30.4488C63.0659 30.0941 62.4686 29.9162 61.6297 29.9162C61.1613 29.9162 60.6571 29.973 60.1166 30.0857C59.5757 30.1988 59.0068 30.3925 58.4099 30.6667C58.1031 30.812 57.8326 30.8525 57.5989 30.7878C57.3647 30.7235 57.1832 30.5903 57.0542 30.3883C56.9248 30.1867 56.8605 29.9647 56.8605 29.7226C56.8605 29.4805 56.9248 29.2426 57.0542 29.0084C57.1832 28.7747 57.4011 28.601 57.7078 28.4879C58.45 28.1816 59.1641 27.9637 59.8503 27.8343C60.5361 27.7053 61.1613 27.6406 61.7265 27.6406C62.8885 27.6406 63.8447 27.8184 64.5952 28.1732C65.3457 28.5284 65.9062 29.0652 66.2777 29.7831C66.6488 30.5014 66.8345 31.4255 66.8345 32.555V38.365C66.8345 38.8655 66.7135 39.2487 66.4714 39.515C66.2293 39.7813 65.882 39.9144 65.4304 39.9144C64.9784 39.9144 64.6274 39.7813 64.3773 39.515C64.1269 39.2487 64.0021 38.8655 64.0021 38.365V37.2032H64.1958C64.0827 37.7682 63.8606 38.2562 63.53 38.6677C63.199 39.0792 62.7833 39.3981 62.2833 39.6239C61.7828 39.8497 61.2098 39.9629 60.5645 39.9629Z" fill="#ECA747"/>
<path d="M75.3318 39.9606C74.2825 39.9606 73.4072 39.7829 72.7051 39.428C72.0031 39.0732 71.4826 38.5528 71.1437 37.8666C70.8048 37.1807 70.6353 36.3293 70.6353 35.3126V30.1561H69.3765C68.9891 30.1561 68.6904 30.0555 68.4807 29.8535C68.2712 29.6519 68.166 29.3735 68.166 29.0183C68.166 28.6472 68.2712 28.3647 68.4807 28.171C68.6904 27.9773 68.9891 27.8805 69.3765 27.8805H70.6353V25.6775C70.6353 25.1775 70.7684 24.798 71.0347 24.5397C71.301 24.2817 71.6763 24.1523 72.1604 24.1523C72.6446 24.1523 73.0157 24.2817 73.274 24.5397C73.532 24.798 73.6614 25.1775 73.6614 25.6775V27.8805H76.2275C76.6148 27.8805 76.9133 27.9773 77.1232 28.171C77.3328 28.3647 77.4379 28.6472 77.4379 29.0183C77.4379 29.3735 77.3328 29.6519 77.1232 29.8535C76.9133 30.0555 76.6148 30.1561 76.2275 30.1561H73.6614V35.1431C73.6614 35.9178 73.8308 36.4988 74.1698 36.8861C74.5087 37.2735 75.0571 37.4671 75.816 37.4671C76.0902 37.4671 76.3323 37.4429 76.5422 37.3945C76.7518 37.3461 76.9375 37.314 77.099 37.2977C77.2927 37.2818 77.4538 37.3423 77.5832 37.4793C77.7122 37.6166 77.7769 37.895 77.7769 38.3145C77.7769 38.6375 77.7243 38.9238 77.6195 39.1738C77.5144 39.4242 77.3248 39.5975 77.0506 39.6943C76.8407 39.7586 76.5664 39.8192 76.2275 39.8759C75.8886 39.9323 75.5897 39.9606 75.3318 39.9606Z" fill="#ECA747"/>
<path d="M84.4823 37.663C85.0792 37.663 85.6039 37.5178 86.0559 37.2273C86.5075 36.9368 86.8586 36.5052 87.109 35.9321C87.359 35.3594 87.4842 34.6453 87.4842 33.7896C87.4842 32.4986 87.2096 31.5345 86.6611 30.8967C86.1123 30.2593 85.386 29.9405 84.4823 29.9405C83.8851 29.9405 83.3605 30.0819 82.9088 30.3641C82.4567 30.6467 82.1057 31.0745 81.8557 31.6472C81.6053 32.2202 81.4805 32.9345 81.4805 33.7896C81.4805 35.0649 81.7547 36.029 82.3036 36.6826C82.852 37.3362 83.5783 37.663 84.4823 37.663ZM84.4823 39.9629C83.2556 39.9629 82.1905 39.7128 81.2868 39.2125C80.3827 38.7123 79.6807 37.9982 79.1806 37.0699C78.6802 36.1422 78.4302 35.0485 78.4302 33.7896C78.4302 32.8376 78.5713 31.9861 78.8538 31.2356C79.136 30.4851 79.5438 29.8399 80.0764 29.2989C80.609 28.7584 81.2463 28.3469 81.9889 28.0643C82.731 27.7821 83.5624 27.6406 84.4823 27.6406C85.7086 27.6406 86.7738 27.8911 87.6779 28.3911C88.5816 28.8915 89.2836 29.6015 89.7841 30.5215C90.2841 31.4414 90.5345 32.5308 90.5345 33.7896C90.5345 34.7421 90.3931 35.5974 90.1109 36.3558C89.8283 37.1146 89.4209 37.764 88.8883 38.3046C88.3557 38.8455 87.718 39.257 86.9758 39.5391C86.2333 39.8215 85.4023 39.9629 84.4823 39.9629Z" fill="#ECA747"/>
<path d="M97.3613 39.9629C96.6672 39.9629 95.933 39.8903 95.1583 39.745C94.3836 39.5997 93.6895 39.3497 93.0764 38.9946C92.818 38.8334 92.6364 38.6434 92.5317 38.4256C92.4265 38.2077 92.3864 37.9898 92.4106 37.772C92.4348 37.5541 92.5154 37.3646 92.6527 37.2032C92.7896 37.0419 92.9674 36.9368 93.1853 36.8883C93.4032 36.8399 93.6411 36.8804 93.8995 37.0094C94.5448 37.3163 95.15 37.5299 95.7151 37.6509C96.2799 37.772 96.8367 37.8325 97.3855 37.8325C98.1602 37.8325 98.737 37.6994 99.1164 37.433C99.4954 37.1667 99.6854 36.8157 99.6854 36.38C99.6854 36.0088 99.5601 35.7225 99.3101 35.5206C99.0597 35.319 98.6844 35.1695 98.1844 35.0728L95.7635 34.6128C94.7626 34.4191 94.0002 34.0521 93.4758 33.5112C92.9512 32.9707 92.689 32.2728 92.689 31.4172C92.689 30.6425 92.9027 29.973 93.3306 29.4079C93.758 28.8431 94.3511 28.4074 95.1099 28.1006C95.8683 27.7942 96.7398 27.6406 97.7244 27.6406C98.4344 27.6406 99.1002 27.7174 99.7217 27.8706C100.343 28.0242 100.944 28.2621 101.525 28.5848C101.767 28.7142 101.933 28.8836 102.021 29.0931C102.11 29.3031 102.13 29.5168 102.082 29.7347C102.034 29.9526 101.937 30.1462 101.792 30.3157C101.646 30.4851 101.465 30.5903 101.247 30.6304C101.029 30.6709 100.783 30.6266 100.508 30.4973C100.008 30.2393 99.528 30.0536 99.068 29.9405C98.6081 29.8278 98.1681 29.771 97.7487 29.771C96.9577 29.771 96.3725 29.9083 95.9935 30.1825C95.6141 30.4572 95.4246 30.8203 95.4246 31.2719C95.4246 31.6109 95.5374 31.8934 95.7635 32.1192C95.9894 32.3455 96.3362 32.4986 96.8045 32.5792L99.2254 33.0392C100.274 33.2328 101.069 33.588 101.61 34.1042C102.15 34.6212 102.421 35.3148 102.421 36.1864C102.421 37.3646 101.961 38.2887 101.041 38.9582C100.121 39.6281 98.8944 39.9629 97.3613 39.9629Z" fill="#ECA747"/>
<path d="M106.342 39.9154C105.858 39.9154 105.487 39.7823 105.229 39.516C104.97 39.2497 104.841 38.8665 104.841 38.3659V23.9861C104.841 23.4861 104.97 23.1066 105.229 22.8483C105.487 22.5903 105.858 22.4609 106.342 22.4609C106.826 22.4609 107.202 22.5903 107.468 22.8483C107.734 23.1066 107.867 23.4861 107.867 23.9861V30.2561H107.528C107.883 29.4009 108.436 28.7514 109.187 28.3073C109.937 27.8637 110.788 27.6416 111.741 27.6416C112.693 27.6416 113.475 27.8194 114.089 28.1742C114.702 28.5294 115.162 29.0662 115.469 29.7841C115.775 30.5024 115.929 31.4102 115.929 32.5075V38.3659C115.929 38.8665 115.8 39.2497 115.542 39.516C115.283 39.7823 114.912 39.9154 114.428 39.9154C113.944 39.9154 113.569 39.7823 113.302 39.516C113.036 39.2497 112.903 38.8665 112.903 38.3659V32.6528C112.903 31.7329 112.729 31.0634 112.382 30.6435C112.035 30.224 111.499 30.0141 110.772 30.0141C109.885 30.0141 109.178 30.2925 108.654 30.8493C108.13 31.4061 107.867 32.1444 107.867 33.0645V38.3659C107.867 39.3991 107.359 39.9154 106.342 39.9154Z" fill="#ECA747"/>
<path d="M120.505 39.8896C120.021 39.8896 119.649 39.7442 119.391 39.4538C119.133 39.1632 119.004 38.7601 119.004 38.2434V29.3588C119.004 28.8262 119.133 28.4187 119.391 28.1361C119.649 27.854 120.021 27.7126 120.505 27.7126C120.989 27.7126 121.364 27.854 121.631 28.1361C121.897 28.4187 122.03 28.8262 122.03 29.3588V38.2434C122.03 38.7601 121.901 39.1632 121.643 39.4538C121.384 39.7442 121.005 39.8896 120.505 39.8896ZM120.505 25.4612C119.94 25.4612 119.5 25.32 119.185 25.0374C118.871 24.7553 118.713 24.3637 118.713 23.8634C118.713 23.347 118.871 22.9517 119.185 22.6771C119.5 22.4028 119.94 22.2656 120.505 22.2656C121.086 22.2656 121.53 22.4028 121.836 22.6771C122.143 22.9517 122.296 23.347 122.296 23.8634C122.296 24.3637 122.143 24.7553 121.836 25.0374C121.53 25.32 121.086 25.4612 120.505 25.4612Z" fill="#ECA747"/>
<path d="M126.057 18H179.274V42H126.057V18Z" fill="#453B17"/>
<path d="M130.623 37.7644C130.321 37.7644 130.087 37.6777 129.921 37.504C129.755 37.3306 129.672 37.0928 129.672 36.7907V22.6612C129.672 22.3442 129.752 22.1028 129.91 21.9366C130.069 21.7707 130.299 21.6875 130.601 21.6875C130.903 21.6875 131.133 21.7707 131.291 21.9366C131.45 22.1028 131.529 22.3442 131.529 22.6612V36.134H138.956C139.228 36.134 139.439 36.2058 139.59 36.3491C139.741 36.4928 139.817 36.6926 139.817 36.9492C139.817 37.206 139.741 37.4059 139.59 37.5492C139.439 37.6929 139.228 37.7644 138.956 37.7644H130.623Z" fill="white"/>
<path d="M147.788 23.9768L144.142 32.5587L143.599 32.1285H151.977L151.479 32.5587L147.833 23.9768H147.788ZM141.176 37.9252C140.934 37.9252 140.742 37.8686 140.598 37.7554C140.455 37.6422 140.372 37.4915 140.349 37.3025C140.327 37.1139 140.368 36.8988 140.474 36.6573L146.701 22.4824C146.837 22.1806 146.999 21.9655 147.188 21.8371C147.376 21.709 147.584 21.6445 147.81 21.6445C148.037 21.6445 148.244 21.709 148.433 21.8371C148.622 21.9655 148.776 22.1806 148.897 22.4824L155.147 36.6573C155.267 36.8988 155.317 37.1179 155.294 37.3138C155.271 37.5102 155.192 37.6613 155.056 37.7667C154.92 37.8722 154.731 37.9252 154.49 37.9252C154.218 37.9252 153.999 37.8534 153.833 37.71C153.667 37.5668 153.531 37.3591 153.426 37.0875L151.75 33.2153L152.656 33.691H142.919L143.848 33.2153L142.195 37.0875C142.059 37.3744 141.915 37.5855 141.764 37.7215C141.613 37.8573 141.417 37.9252 141.176 37.9252Z" fill="white"/>
<path d="M177.396 29.9478C177.396 36.2006 172.328 41.2695 166.075 41.2695C159.822 41.2695 154.753 36.2006 154.753 29.9478C154.753 23.695 159.822 18.6261 166.075 18.6261C172.328 18.6261 177.396 23.695 177.396 29.9478Z" fill="#E9AA42"/>
<path fill-rule="evenodd" clip-rule="evenodd" d="M166.44 36.6802C166.405 36.2976 166.37 35.915 166.336 35.5323C165.884 35.5672 165.431 35.6019 164.979 35.6367C164.988 36.1901 164.924 36.4737 164.77 36.7845C164.457 36.7498 164.144 36.715 163.831 36.6802C163.716 35.8097 163.568 35.6655 162.788 35.428C162.764 33.7629 162.401 25.2501 162.997 24.5758C163.205 24.5411 163.414 24.5062 163.623 24.4715C163.657 23.9497 163.692 23.428 163.727 22.9062C164.144 22.941 164.562 22.9759 164.979 23.0106C165.014 23.4976 165.049 23.9846 165.084 24.4715C165.685 24.4901 166.099 24.431 166.44 24.2628C166.412 23.5754 166.364 23.3073 166.544 22.9062C166.927 22.941 167.31 22.9759 167.692 23.0106C167.668 23.6585 167.717 24.2005 167.901 24.5758C169.858 24.7577 171.679 26.8207 170.197 28.8541C169.71 29.1671 169.223 29.4802 168.736 29.7932C169.657 30.0337 170.447 30.6601 170.823 31.4628C171.679 34.1268 169.797 35.1841 167.692 35.6367C167.678 36.3164 167.573 36.4417 167.275 36.7845C166.997 36.7498 166.718 36.715 166.44 36.6802Z" fill="#423C1B"/>
<path d="M164.718 25.8247C164.399 26.6118 164.526 28.2913 164.613 29.0594C165.96 29.1235 167.769 29.2642 168.266 28.4334C168.902 27.8384 168.674 26.8662 168.266 26.2421C167.335 25.8967 166.141 25.8086 164.718 25.8247Z" fill="#E9A945"/>
<path d="M164.666 30.6247V33.9638C164.77 33.9987 164.875 34.0334 164.979 34.0682C166.397 33.7857 168.314 34.2761 168.944 32.9204C169.178 32.1329 168.846 31.5605 168.527 31.0421C167.569 30.6526 166.167 30.6054 164.666 30.6247Z" fill="#E9A945"/>
</svg>
