<svg width="220" height="61" viewBox="0 0 220 61" fill="none" xmlns="http://www.w3.org/2000/svg">
<path d="M0.600925 30.6328L20.2676 1.13281H199.732L219.399 30.6328L199.732 60.1328H20.2676L0.600925 30.6328Z" fill="#FFF8EE" stroke="black"/>
<path d="M114.651 44.9308C114.426 44.8896 114.199 44.8559 113.978 44.8053C112.591 44.4907 111.785 43.5658 111.755 42.1689C111.724 40.8245 111.749 39.4782 111.749 38.1319C111.749 38.1019 111.757 38.0701 111.765 38.0195C112.53 38.0195 113.293 38.0195 114.084 38.0195C114.084 38.1169 114.084 38.2086 114.084 38.3004C114.084 39.4819 114.082 40.6634 114.086 41.845C114.086 41.9929 114.092 42.1427 114.121 42.2887C114.223 42.8224 114.557 43.0733 115.125 43.0564C115.643 43.0415 115.964 42.7569 116.037 42.2419C116.056 42.1109 116.058 41.976 116.058 41.8431C116.06 40.6616 116.058 39.48 116.058 38.2985C116.058 38.2143 116.058 38.1281 116.058 38.0214C116.839 38.0214 117.602 38.0214 118.385 38.0214C118.391 38.0907 118.402 38.1581 118.402 38.2255C118.402 39.5006 118.408 40.7758 118.402 42.0509C118.397 42.9815 118.089 43.7923 117.238 44.3653C116.802 44.6593 116.299 44.8053 115.767 44.8783C115.686 44.8896 115.604 44.912 115.522 44.9289C115.234 44.9308 114.941 44.9308 114.651 44.9308Z" fill="black"/>
<path d="M136.967 44.9287C136.495 44.8332 136.006 44.7789 135.552 44.6329C135.114 44.4925 134.709 44.264 134.296 44.0655C134.149 43.9944 134.139 43.897 134.239 43.7603C134.584 43.296 134.914 42.8222 135.263 42.3335C135.36 42.4028 135.439 42.459 135.517 42.5151C136.094 42.9271 136.746 43.1593 137.48 43.1742C137.681 43.178 137.902 43.163 138.08 43.09C138.211 43.0357 138.354 42.8765 138.362 42.7548C138.368 42.6574 138.198 42.4889 138.076 42.4571C137.642 42.3466 137.19 42.2867 136.75 42.1949C136.452 42.1313 136.149 42.0676 135.865 41.9665C134.897 41.622 134.445 40.9292 134.566 39.9873C134.695 38.9743 135.362 38.3564 136.38 38.0681C137.777 37.673 139.098 37.8808 140.321 38.6148C140.393 38.6579 140.458 38.7084 140.524 38.759C140.55 38.7777 140.569 38.8039 140.612 38.847C140.237 39.3245 139.863 39.8038 139.481 40.2944C138.935 39.8619 138.331 39.6297 137.638 39.6241C137.462 39.6222 137.27 39.6353 137.112 39.699C137.002 39.7439 136.877 39.8843 136.875 39.9854C136.873 40.0809 137.004 40.2401 137.108 40.2663C137.566 40.3843 138.039 40.4648 138.503 40.5622C139.106 40.6895 139.699 40.8393 140.16 41.2512C140.749 41.7793 140.888 42.7192 140.487 43.4813C140.068 44.279 139.307 44.6423 138.413 44.8276C138.223 44.8669 138.028 44.8932 137.836 44.9269C137.548 44.9287 137.257 44.9287 136.967 44.9287Z" fill="black"/>
<path d="M89.095 32.2996C86.2727 32.2996 83.4523 32.2996 80.63 32.2996C80.1228 32.2996 80.0205 32.2041 80.0205 31.7341C80.0205 26.5511 80.0205 21.37 80.0205 16.1871C80.0205 15.7433 80.1391 15.6328 80.6238 15.6328C86.2747 15.6328 91.9276 15.6328 97.5785 15.6328C98.1143 15.6328 98.2125 15.7227 98.2125 16.2039C98.2125 21.3775 98.2125 26.553 98.2125 31.7266C98.2125 32.219 98.1245 32.2996 97.5866 32.2996C94.7561 32.2996 91.9256 32.2996 89.095 32.2996ZM89.1216 26.7533C89.9683 26.7533 90.815 26.7552 91.6597 26.7533C91.9951 26.7515 92.1587 26.6129 92.1608 26.3152C92.1648 24.7573 92.1648 23.1994 92.1608 21.6434C92.1608 21.3213 92.0074 21.1884 91.6536 21.1884C89.9704 21.1865 88.2851 21.1865 86.6019 21.1884C86.2195 21.1884 86.0804 21.3195 86.0804 21.6752C86.0784 23.2088 86.0804 24.7442 86.0804 26.2777C86.0804 26.6298 86.2195 26.7533 86.6081 26.7552C87.4466 26.7533 88.2831 26.7533 89.1216 26.7533Z" fill="black"/>
<path d="M107.309 21.1884C107.45 21.1884 107.552 21.1884 107.653 21.1884C109.354 21.1884 111.056 21.1884 112.757 21.1884C113.273 21.1884 113.373 21.2801 113.373 21.7501C113.373 23.2294 113.373 24.7086 113.373 26.1879C113.373 26.6541 113.273 26.744 112.753 26.744C111.052 26.744 109.35 26.744 107.649 26.744C107.548 26.744 107.446 26.744 107.307 26.744C107.307 26.8545 107.307 26.9462 107.307 27.0361C107.307 28.6164 107.307 30.1987 107.307 31.779C107.307 32.1835 107.188 32.2939 106.747 32.2939C105.104 32.2939 103.464 32.2939 101.822 32.2939C101.368 32.2939 101.247 32.1816 101.247 31.7622C101.247 26.5886 101.247 21.4131 101.247 16.2395C101.247 15.7133 101.339 15.6328 101.922 15.6328C103.513 15.6328 105.102 15.6328 106.693 15.6328C107.207 15.6328 107.307 15.7264 107.307 16.1983C107.307 17.7637 107.307 19.329 107.307 20.8944C107.309 20.9787 107.309 21.0629 107.309 21.1884Z" fill="black"/>
<path d="M95.8281 37.9973C96.5562 37.9973 97.2659 37.9917 97.9735 38.0048C98.0492 38.0067 98.1453 38.0928 98.1965 38.1621C98.8918 39.0927 99.5811 40.027 100.27 40.9595C100.315 41.0213 100.364 41.0794 100.463 41.1243C100.463 40.0963 100.463 39.0683 100.463 38.0179C101.219 38.0179 101.947 38.0179 102.69 38.0179C102.69 40.2667 102.69 42.5118 102.69 44.7831C102.6 44.7887 102.51 44.7962 102.42 44.7962C101.925 44.7981 101.428 44.7887 100.933 44.8018C100.749 44.8055 100.638 44.7494 100.534 44.6127C99.7774 43.6072 99.0125 42.6073 98.2517 41.6055C98.2046 41.5437 98.1515 41.4838 98.0492 41.4333C98.0492 42.5455 98.0492 43.6577 98.0492 44.7831C97.2904 44.7831 96.5685 44.7831 95.8281 44.7831C95.8281 42.5286 95.8281 40.2779 95.8281 37.9973Z" fill="black"/>
<path d="M119.89 38.0225C119.937 38.0131 119.978 38 120.018 38C121.266 38.0056 122.516 37.9888 123.761 38.03C124.551 38.0562 125.271 38.3071 125.796 38.8894C126.737 39.9342 126.424 41.5895 125.158 42.2861C125.101 42.3179 125.044 42.3516 124.964 42.3965C125.493 43.1848 126.019 43.9657 126.561 44.7746C126.471 44.7858 126.416 44.797 126.361 44.7989C125.608 44.8008 124.855 44.797 124.105 44.8026C123.947 44.8045 123.859 44.7521 123.784 44.6285C123.438 44.0611 123.072 43.505 122.735 42.9339C122.62 42.7411 122.487 42.6718 122.231 42.7448C122.231 43.4095 122.231 44.0855 122.231 44.7802C121.436 44.7802 120.673 44.7802 119.89 44.7802C119.89 42.5257 119.89 40.2769 119.89 38.0225ZM122.235 41.0221C122.653 41.0221 123.064 41.0521 123.465 41.0128C123.829 40.9772 124.013 40.73 124.009 40.4061C124.005 40.0878 123.812 39.8462 123.446 39.8107C123.054 39.7732 122.651 39.8013 122.235 39.8013C122.235 40.202 122.235 40.6102 122.235 41.0221Z" fill="black"/>
<path d="M137.648 21.1861C136.82 21.1861 135.989 21.1861 135.161 21.1861C134.76 21.1861 134.635 21.0756 134.635 20.7123C134.633 19.1863 134.633 17.6602 134.635 16.136C134.635 15.7409 134.756 15.6342 135.183 15.6342C136.824 15.6323 138.466 15.6323 140.106 15.6342C140.568 15.6342 140.689 15.7428 140.689 16.1604C140.689 17.6696 140.689 19.1807 140.687 20.6899C140.687 21.0812 140.566 21.1861 140.133 21.1879C139.307 21.1879 138.476 21.1861 137.648 21.1861Z" fill="black"/>
<path d="M119.445 18.4111C119.445 19.1788 119.445 19.9446 119.445 20.7123C119.445 21.0606 119.314 21.1842 118.942 21.1861C117.259 21.1879 115.574 21.1879 113.891 21.1861C113.518 21.1861 113.385 21.0587 113.383 20.7123C113.381 19.1788 113.381 17.6452 113.383 16.1117C113.383 15.7597 113.522 15.6342 113.915 15.6342C115.582 15.6323 117.249 15.6323 118.916 15.6342C119.319 15.6342 119.447 15.7615 119.445 16.1342C119.445 16.8944 119.445 17.6527 119.445 18.4111Z" fill="black"/>
<path d="M125.508 21.1856C124.679 21.1856 123.851 21.1875 123.021 21.1856C122.628 21.1856 122.497 21.0657 122.497 20.7081C122.495 19.1746 122.497 17.6429 122.497 16.1094C122.497 15.7648 122.628 15.6375 123.004 15.6356C124.679 15.6319 126.352 15.6319 128.027 15.6356C128.414 15.6356 128.553 15.7686 128.553 16.1187C128.553 17.6448 128.553 19.1689 128.553 20.695C128.553 21.0695 128.428 21.1856 128.017 21.1856C127.18 21.1875 126.344 21.1856 125.508 21.1856Z" fill="black"/>
<path d="M137.663 32.3022C136.834 32.3022 136.006 32.3022 135.176 32.3022C134.746 32.3022 134.634 32.1973 134.634 31.7985C134.634 30.2818 134.634 28.7632 134.634 27.2465C134.634 26.8683 134.756 26.7578 135.168 26.7578C136.824 26.7578 138.483 26.7578 140.139 26.7578C140.565 26.7578 140.686 26.8683 140.686 27.2615C140.688 28.7782 140.688 30.2968 140.686 31.8134C140.686 32.1861 140.557 32.3022 140.146 32.304C139.321 32.3022 138.491 32.3022 137.663 32.3022Z" fill="black"/>
<path d="M128.562 23.9548C128.562 23.1965 128.56 22.4363 128.562 21.6779C128.562 21.3203 128.697 21.1967 129.084 21.1967C130.759 21.1948 132.434 21.1948 134.111 21.1967C134.485 21.1967 134.624 21.3203 134.624 21.663C134.626 23.204 134.626 24.7469 134.624 26.2879C134.624 26.6119 134.477 26.7467 134.127 26.7467C132.434 26.7486 130.743 26.7486 129.049 26.7467C128.712 26.7467 128.564 26.61 128.562 26.3029C128.56 25.5202 128.562 24.7375 128.562 23.9548Z" fill="black"/>
<path d="M119.445 29.5345C119.445 30.3003 119.447 31.068 119.445 31.8339C119.445 32.1784 119.31 32.3001 118.936 32.3001C117.261 32.302 115.586 32.302 113.911 32.3001C113.518 32.3001 113.383 32.1784 113.383 31.8226C113.381 30.2966 113.381 28.7705 113.383 27.2464C113.383 26.8756 113.518 26.7539 113.923 26.7539C115.59 26.7539 117.257 26.7539 118.922 26.7539C119.312 26.7539 119.445 26.8737 119.445 27.2333C119.445 28.001 119.445 28.7687 119.445 29.5345Z" fill="black"/>
<path d="M125.51 32.3034C124.681 32.3034 123.853 32.3034 123.023 32.3034C122.626 32.3034 122.499 32.1892 122.499 31.8278C122.499 30.2943 122.499 28.7607 122.499 27.2272C122.499 26.8826 122.632 26.7553 123.004 26.7553C124.687 26.7534 126.371 26.7534 128.054 26.7553C128.414 26.7553 128.555 26.8826 128.555 27.2084C128.557 28.7495 128.557 30.2905 128.555 31.8315C128.555 32.1761 128.42 32.3015 128.048 32.3015C127.201 32.3053 126.356 32.3034 125.51 32.3034Z" fill="black"/>
<path d="M88.8252 38.0156C90.672 38.0156 92.5127 38.0156 94.3718 38.0156C94.3718 38.5998 94.3718 39.1747 94.3718 39.787C93.2939 39.787 92.2161 39.787 91.1199 39.787C91.1199 40.0379 91.1199 40.2532 91.1199 40.491C91.216 40.4966 91.306 40.5041 91.398 40.5041C92.1159 40.506 92.8338 40.5097 93.5516 40.5022C93.7377 40.5004 93.8093 40.5434 93.8032 40.7251C93.7889 41.1482 93.7889 41.5714 93.8032 41.9927C93.8114 42.195 93.7561 42.2642 93.521 42.2605C92.8297 42.2455 92.1364 42.2549 91.443 42.2549C91.3428 42.2549 91.2406 42.2549 91.1035 42.2549C91.1035 42.4871 91.0892 42.6968 91.1138 42.9009C91.1199 42.9439 91.259 43.0057 91.3387 43.0076C92.2448 43.0151 93.1508 43.0113 94.0568 43.0113C94.157 43.0113 94.2572 43.0113 94.3718 43.0113C94.3718 43.6161 94.3718 44.191 94.3718 44.7846C92.5249 44.7846 90.6843 44.7846 88.8252 44.7846C88.8252 42.5301 88.8252 40.2813 88.8252 38.0156Z" fill="black"/>
<path d="M127.694 38.0156C129.559 38.0156 131.402 38.0156 133.253 38.0156C133.253 38.6092 133.253 39.184 133.253 39.7851C132.169 39.7851 131.095 39.7851 130.001 39.7851C130.001 40.0323 130.001 40.2532 130.001 40.5041C130.885 40.5041 131.76 40.5041 132.652 40.5041C132.652 41.0939 132.652 41.6538 132.652 42.2418C131.774 42.2418 130.899 42.2418 130.003 42.2418C130.003 42.5058 130.003 42.7417 130.003 43.0057C131.083 43.0057 132.155 43.0057 133.247 43.0057C133.247 43.6068 133.247 44.1816 133.247 44.7827C133.161 44.7883 133.071 44.7977 132.981 44.7995C131.298 44.7995 129.615 44.7977 127.931 44.8033C127.754 44.8033 127.674 44.7733 127.676 44.5861C127.682 42.4571 127.68 40.33 127.68 38.201C127.68 38.1467 127.688 38.0943 127.694 38.0156Z" fill="black"/>
<path d="M87.6797 37.9961C87.3709 38.7844 87.0804 39.5259 86.79 40.2692C86.2256 41.7129 85.659 43.1547 85.1028 44.6002C85.0434 44.7519 84.9698 44.8062 84.7939 44.8025C84.1436 44.7931 83.4952 44.7969 82.8449 44.8006C82.7017 44.8006 82.6178 44.7744 82.5606 44.6321C81.718 42.4582 80.8672 40.288 80.0184 38.1159C80.0102 38.0935 80.0102 38.0691 80 38.0148C80.0839 38.0092 80.1616 37.998 80.2413 37.998C80.8999 37.9961 81.5584 38.0036 82.2149 37.9923C82.4051 37.9886 82.4808 38.0541 82.536 38.2114C82.941 39.3723 83.3541 40.5314 83.7632 41.6923C83.7836 41.7504 83.8081 41.8084 83.8552 41.9301C83.9084 41.8065 83.9431 41.7335 83.9697 41.6586C84.3828 40.5071 84.8001 39.3574 85.205 38.2039C85.2643 38.0373 85.3502 37.9905 85.5322 37.9923C86.2317 38.0017 86.9312 37.9961 87.6797 37.9961Z" fill="black"/>
<path d="M106.093 39.7945C105.488 39.7945 104.928 39.7945 104.365 39.7945C103.999 39.7945 103.999 39.7945 103.999 39.4499C103.999 38.9743 103.999 38.5006 103.999 38.0156C106.185 38.0156 108.341 38.0156 110.529 38.0156C110.529 38.5774 110.533 39.1222 110.519 39.6671C110.517 39.7102 110.384 39.787 110.31 39.7888C109.773 39.8001 109.235 39.8038 108.697 39.7907C108.478 39.7851 108.425 39.8563 108.427 40.0472C108.435 41.534 108.431 43.0188 108.431 44.5056C108.431 44.5973 108.431 44.6872 108.431 44.7902C107.635 44.7902 106.879 44.7902 106.095 44.7902C106.093 43.1331 106.093 41.4872 106.093 39.7945Z" fill="black"/>
</svg>
